<svg version="1.1" width="512" height="512" viewBox="0 0 512 512" xmlns="http://www.w3.org/2000/svg" xmlns:xlink="http://www.w3.org/1999/xlink" id="Capa_1" overflow="hidden"><g><path d=" M 448 85.333 L 381.867 85.333 C 371.66 35.703 328.002 0.064 277.333 0 L 234.666 0 C 183.997 0.064 140.339 35.703 130.133 85.333 L 64 85.333 C 52.218 85.333 42.667 94.884 42.667 106.666 C 42.667 118.448 52.218 128 64 128 L 85.333 128 L 85.333 405.333 C 85.404 464.214 133.119 511.93 192 512 L 320 512 C 378.881 511.93 426.596 464.214 426.667 405.333 L 426.667 128 L 448 128 C 459.782 128 469.333 118.449 469.333 106.667 C 469.333 94.885 459.782 85.333 448 85.333 Z M 234.667 362.667 C 234.667 374.449 225.116 384 213.334 384 C 201.551 384 192 374.449 192 362.667 L 192 234.667 C 192 222.885 201.551 213.334 213.333 213.334 C 225.115 213.334 234.666 222.885 234.666 234.667 L 234.666 362.667 Z M 320 362.667 C 320 374.449 310.449 384 298.667 384 C 286.885 384 277.334 374.449 277.334 362.667 L 277.334 234.667 C 277.334 222.885 286.885 213.334 298.667 213.334 C 310.449 213.334 320 222.885 320 234.667 L 320 362.667 Z M 174.315 85.333 C 183.389 59.782 207.553 42.699 234.667 42.666 L 277.334 42.666 C 304.448 42.699 328.612 59.782 337.686 85.333 L 174.315 85.333 Z" stroke="none" stroke-width="1" stroke-dasharray="" stroke-dashoffset="1" fill="#FF0000" fill-opacity="1"/></g></svg>